<svg width="124" height="28" xmlns="http://www.w3.org/2000/svg">
 <g>
  <title>background</title>
  <rect x="-1" y="-1" width="126" height="30" id="canvas_background" fill="none"/>
 </g>

 <g>
  <title>Layer 1</title>
  <g fill="none" fill-rule="evenodd" id="svg_1">
   <path fill="none" d="m0,0l124,0l0,28l-124,0l0,-28z" id="svg_2"/>
   <path fill="#1F5AF6" d="m117.413,1.19l6.576,6.576l-6.6,6.6l-6.576,-6.577l6.6,-6.599z" id="svg_3"/>
   <g fill="#000" fill-rule="nonzero" id="svg_4">
    <path d="m28.925,7.392l-3.648,0l-0.382,0.343l-3.743,13.197l-0.024,0l-4.198,-13.197l-0.382,-0.343l-3.815,0l-0.382,0.343l-4.171,13.124l-0.071,-0.05l-0.024,-0.024l-3.745,-13.05l-0.382,-0.343l-3.72,0l-0.238,0.343l5.842,18.584l0.406,0.367l3.672,0l0.405,-0.367l4.173,-13.296l0.096,0l4.196,13.297l0.405,0.367l3.72,0l0.406,-0.367l5.842,-18.584l-0.238,-0.344zm41.278,0l-3.672,0l-0.406,0.343l-5.127,13.736l-0.047,0.024l-5.08,-13.76l-0.405,-0.343l-3.744,0l-0.238,0.343l7.32,18.584l0.43,0.367l3.386,0l0.43,-0.367l7.392,-18.584l-0.239,-0.343zm18.934,10.675l0.358,-0.342l0,-0.563c0,-3.012 -0.835,-5.608 -2.48,-7.42c-1.646,-1.812 -3.863,-2.742 -6.582,-2.742c-2.623,0 -4.817,1.004 -6.51,2.963c-1.693,1.959 -2.528,4.334 -2.528,7.027c0,2.865 0.883,5.265 2.623,7.15c1.741,1.885 4.03,2.84 6.797,2.84c2.003,0 3.72,-0.49 5.103,-1.493c1.383,-0.98 2.837,-2.596 3.338,-4.8l-0.262,-0.367l-3.434,0l-0.477,0.367c-0.858,1.763 -2.17,2.596 -4.34,2.596c-1.407,0 -2.67,-0.514 -3.72,-1.518c-1.001,-0.955 -1.574,-2.106 -1.717,-3.746l13.83,0.048l0.001,0zm-13.592,-3.427c0.596,-2.278 2.456,-3.967 4.888,-3.967c3.22,0 4.555,2.35 4.936,3.967l-9.824,0zm-30.023,-7.248l-0.357,0.367l0,1.91l-0.072,0.073c-0.477,-0.636 -1.12,-1.2 -1.884,-1.665a11.455,11.455 0 0 0 -0.548,-0.293c-1.026,-0.515 -2.194,-0.76 -3.458,-0.76c-2.36,0 -4.435,0.98 -6.152,2.89c-1.717,1.91 -2.576,4.31 -2.576,7.125c0,2.816 0.859,5.216 2.576,7.125c1.717,1.91 3.791,2.89 6.152,2.89c1.264,0 2.409,-0.245 3.434,-0.76c0.19,-0.097 0.405,-0.195 0.596,-0.318c0.74,-0.465 1.36,-0.98 1.836,-1.591c0.024,-0.025 0.096,0.024 0.12,0l0,1.983l0.357,0.367l3.124,0l0.358,-0.367l0,-18.633l-0.358,-0.368l-3.148,0l0,0.025zm-1.931,14.25c-1.05,1.151 -2.313,1.714 -3.84,1.714c-1.478,0 -2.575,-0.563 -3.648,-1.738c-1.073,-1.15 -1.598,-2.694 -1.598,-4.628c0,-1.91 0.549,-3.452 1.598,-4.628c1.073,-1.15 2.146,-1.738 3.649,-1.738c1.502,0 2.766,0.563 3.839,1.714c0.691,0.759 1.144,1.665 1.407,2.767l0,3.722c-0.239,1.15 -0.716,2.08 -1.407,2.815zm58.781,-6.121s-2.051,-0.44 -3.744,-0.833c-1.55,-0.367 -2.337,-0.832 -2.337,-1.958c0,-1.2 1.12,-2.204 3.529,-2.204c2.36,0 3.672,1.077 3.672,2.032l0.406,0.368l3.434,0l0.262,-0.343c0,-2.522 -2.122,-5.534 -7.679,-5.534c-5.794,0 -7.607,3.501 -7.607,5.754c0,1.885 0.668,4.114 5.104,5.167l3.815,0.881c1.931,0.44 2.742,1.126 2.742,2.277c0,1.053 -1.025,2.326 -3.696,2.326c-2.48,0 -3.982,-1.224 -4.054,-2.669l-0.429,-0.367l-3.505,0l-0.263,0.367c0.31,3.232 2.647,6.269 8.227,6.269c6.32,0 7.607,-3.967 7.607,-6.048c0,-2.792 -1.55,-4.604 -5.484,-5.485z" id="svg_5"/>
   </g>
  </g>
  <ellipse fill="#fff" stroke="#000" stroke-width="1.5" cx="10.876056" cy="10.056721" id="svg_6" rx="2.43745" ry="4.37491"/>
  <ellipse fill="#fff" stroke="#000" stroke-width="1.5" cx="15.250965" cy="2.556876" id="svg_7" rx="0.312494" ry="0.249995"/>
  <rect fill="#fff" stroke="#000" stroke-width="1.5" x="0.063779" y="0.806912" width="107.622782" height="25.874467" id="svg_8"/>
  <rect fill="#fff" stroke="#000" stroke-width="1.5" x="-4.186134" y="-2.568019" width="137.872158" height="33.999299" id="svg_9"/>
  <text font-weight="bold" fill="#f40202" stroke-width="0" x="5.862343" y="10.299546" id="svg_10" font-size="24" font-family="Arvo, sans-serif" text-anchor="start" xml:space="preserve" transform="matrix(1.210471272468567,0,0,0.7084769657637366,-2.3283400574518964,12.273115396046965) " stroke="#000">WIND</text>
  <path stroke="#000" transform="rotate(35.127071380615234 110.92488098144533,17.260843276977546) " id="svg_11" d="m112.244811,17.260846l-13.070681,-10.534903l23.501504,10.534903l-23.501504,10.534897l13.070681,-10.534897z" stroke-opacity="null" stroke-width="0" fill="#f90202"/>
 </g>
</svg>