<svg width="124" height="28" xmlns="http://www.w3.org/2000/svg">

 <g>
  <title>background</title>
  <rect fill="none" id="canvas_background" height="402" width="582" y="-1" x="-1"/>
 </g>
 <g>
  <title>Layer 1</title>
  <text stroke="#000" transform="matrix(1.7494204416046841,0,0,1,-0.3049334830657031,0) " font-weight="bold" xml:space="preserve" text-anchor="start" font-family="Helvetica, Arial, sans-serif" font-size="24" id="svg_6" y="27.431262" x="0.43924" stroke-width="0" fill="#000000">WIND</text>
  <path stroke="#000" transform="rotate(-33.308963775634766 115.57238769531251,9.493249893188489) " id="svg_7" d="m110.746146,4.545007c-0.574786,-0.402703 -1.497661,-0.402703 -2.069514,0.00207c-0.570398,0.404772 -0.570398,1.060065 0.002922,1.465878l0,-0.00207c1.262188,0.894435 2.040263,2.12117 2.040263,3.48456c0,1.36236 -0.776621,2.584956 -2.037342,3.479391c-0.576241,0.402703 -0.576241,1.057995 -0.002922,1.464837c0.285199,0.201877 0.659605,0.303325 1.034024,0.303325c0.375873,0 0.750291,-0.101448 1.03549,-0.303325c1.787236,-1.262971 2.895848,-3.017675 2.894393,-4.944228c0.001455,-1.930693 -1.111545,-3.687466 -2.897315,-4.950437zm3.356552,-2.3748c-0.574786,-0.404772 -1.497649,-0.404772 -2.066581,0c-0.573331,0.404772 -0.573331,1.061105 0,1.463808c2.120694,1.502103 3.428219,3.56841 3.428219,5.8604c0,2.28991 -1.307525,4.355188 -3.425297,5.858331c-0.573319,0.403732 -0.573319,1.059035 0,1.463808c0.285199,0.201866 0.659605,0.303325 1.03549,0.303325c0.374406,0 0.748825,-0.101458 1.034024,-0.303325c2.6443,-1.87272 4.283816,-4.466995 4.280894,-7.322139c0.001467,-2.857224 -1.638061,-5.453558 -4.286749,-7.324208zm3.186902,-2.255755c-0.574774,-0.404772 -1.499116,-0.402703 -2.068047,0.00207c-0.571853,0.402703 -0.571853,1.059035 0.002922,1.462768l-0.002922,0c2.938276,2.079765 4.750375,4.941129 4.750375,8.115126c0,3.170887 -1.812099,6.03328 -4.747453,8.114085c-0.571853,0.403732 -0.571853,1.059035 0.002933,1.464837c0.283732,0.200837 0.658151,0.301255 1.032557,0.301255s0.750291,-0.101458 1.03549,-0.303325c3.456015,-2.449342 5.603038,-5.841762 5.600117,-9.576853c0.002922,-3.738201 -2.144102,-7.131661 -5.605972,-9.579963z" stroke-width="0.5" fill="#00007f"/>
 </g>
</svg>